<svg xmlns="http://www.w3.org/2000/svg" aria-hidden="true" style="position:absolute;width:0;height:0;overflow:hidden"><defs><symbol id="icon-antenna" viewBox="0 0 32 32"><path fill="#2e2f42" d="m30.775 22.099-8.444-8.506.937-4.616c.225.09.485.144.758.146h.007c1.192.014 2.17-.941 2.184-2.133s-.941-2.17-2.133-2.184c-1.192-.014-2.17.941-2.184 2.133v.026c0 .259.046.508.13.739l-.005-.015-4.96.605L8.974.161a.53.53 0 0 0-.376-.16.5362.5362 0 0 0-.373.155L6.712 1.66a.5335.5335 0 0 0 0 .754l.814.826c-3.153 5.798-2.129 12.979 2.52 17.664.043.041.092.074.146.098a2.986 2.986 0 0 0-.052.546v6.188h-6.4c-1.472.002-2.665 1.195-2.667 2.667v1.067c0 .295.239.533.533.533h24.535c.295 0 .533-.239.533-.533v-1.067c-.002-1.472-1.195-2.665-2.667-2.667h-6.4v-2.742c.915.201 1.968.317 3.047.32h.002c2.58-.003 5.005-.663 7.118-1.822l-.077.039.818.823a.534.534 0 0 0 .377.16c.14-.001.274-.056.373-.155l1.513-1.504a.5335.5335 0 0 0 0-.754zM23.281 6.233c.418-.415 1.093-.414 1.509.004s.414 1.093-.004 1.509c-.193.192-.459.31-.752.31h-.003c-.589-.003-1.064-.483-1.061-1.072.002-.294.122-.559.314-.751h-.002zm-1.255 3.505-.598 2.946-1.176-1.182 1.774-1.763zm-.606-.902-1.92 1.909-1.485-1.493 3.406-.415zm2.586 19.966c.884 0 1.6.716 1.6 1.6v.533H2.138v-.533c0-.884.716-1.6 1.6-1.6h20.268zm-7.468-2.134v1.067h-5.334v-1.067h5.334zm-5.333-1.066v-4.054c0-1.294 1.196-2.347 2.667-2.347s2.667 1.053 2.667 2.347v4.054h-5.334zm6.4-1.697v-2.358c0-1.882-1.675-3.413-3.734-3.413h-.058c-1.353 0-2.54.707-3.214 1.771l-.009.016C6.532 15.647 5.618 9.275 8.311 4.033l18.603 18.71c-1.823.947-3.98 1.502-6.267 1.502-1.079 0-2.128-.124-3.136-.357l.093.018zm11.29-.683L7.837 2.04l.755-.752 7.935 7.98c.004 0 .006.007.01.01L29.652 22.47l-.757.752z" style="fill:var(--color1, #2e2f42)"/><path fill="#4d5ae5" d="M13.876 20.268h-.005c-.884-.001-1.601.714-1.602 1.598s.714 1.601 1.598 1.602h.005c.884.001 1.601-.714 1.602-1.598s-.714-1.601-1.598-1.602zm.374 1.978a.5297.5297 0 0 1-.376.155h-.002a.5343.5343 0 0 1-.531-.536.5333.5333 0 0 1 .157-.375.5346.5346 0 0 1 .373-.155c.295.002.532.242.531.536a.5333.5333 0 0 1-.157.375h.005z" style="fill:var(--color2, #4d5ae5)"/></symbol><symbol id="icon-astronaut" viewBox="0 0 32 32"><path fill="#4d5ae5" d="M31.976 4.524c-.064-.191-.227-.332-.427-.362h-.003l-1.91-.278-.855-1.731c-.179-.365-.777-.365-.956 0l-.855 1.731-1.911.278a.5352.5352 0 0 0-.43.359l-.001.004a.5342.5342 0 0 0 .135.547l1.383 1.348-.326 1.903c-.034.2.048.402.212.522a.528.528 0 0 0 .313.102c.091 0 .177-.023.252-.063l-.003.001 1.709-.899 1.709.899c.072.039.158.061.248.061.11 0 .221-.034.314-.102.134-.098.22-.254.22-.431 0-.032-.003-.063-.008-.094v.003l-.326-1.903 1.383-1.348a.5348.5348 0 0 0 .134-.55l.001.004zm-2.463 1.327a.5331.5331 0 0 0-.161.382c0 .032.003.063.008.094v-.003l.191 1.114-1.001-.526a.5203.5203 0 0 0-.248-.061h-.001c-.085 0-.17.02-.249.061l-1.001.526.191-1.114a.5021.5021 0 0 0 .008-.09c0-.15-.062-.285-.161-.382l-.81-.789 1.119-.163a.5335.5335 0 0 0 .4-.289l.001-.003.5-1.013.5 1.013c.078.157.228.267.402.292l1.119.163-.809.789zm-3.378 14.672h-1.067v1.067h1.067v-1.067zm0 2.134h-1.067v1.067h1.067v-1.067zm1.067-1.067h-1.067v1.067h1.067V21.59zM25.068 21.59h-1.067v1.067h1.067V21.59zm-2.667 4.801h-1.067v1.067h1.067v-1.067zm0 2.133h-1.067v1.067h1.067v-1.067zm1.067-1.067h-1.067v1.067h1.067v-1.067zm-2.133 0h-1.067v1.067h1.067v-1.067zm-5.334-3.2h-1.067v1.067h1.067v-1.067zm0 2.134h-1.067v1.067h1.067v-1.067zm1.067-1.067h-1.067v1.067h1.067v-1.067zm-2.134 0h-1.067v1.067h1.067v-1.067zM5.867 6.122H4.8v1.067h1.067V6.122zm0 2.134H4.8v1.067h1.067V8.256zM6.934 7.189H5.867v1.067h1.067V7.189zm-2.134 0H3.733v1.067H4.8V7.189z" style="fill:var(--color2, #4d5ae5)"/><path fill="#2e2f42" d="M24.716 14.16c-.287-.388-.709-.637-1.188-.705-.481-.068-.956.058-1.34.352l-1.252.96-1.898 1.417-1.358-.541c2.422-1.086 4.114-3.508 4.114-6.32 0-3.823-3.123-6.934-6.962-6.934S7.87 5.5 7.87 9.323c0 1.386.414 2.674 1.12 3.759l-2.769-.024c-.009 0-.015.004-.023.005a.5547.5547 0 0 0-.159.032l.004-.001c-.013.005-.026.008-.038.013-.006.003-.013.003-.019.006l-3.233 1.596c-.001 0-.001 0-.001.001l-1.894.911a.4288.4288 0 0 0-.064.036l.001-.001c-.755.502-1.012 1.489-.599 2.296.22.429.595.745 1.056.889.161.052.347.082.539.083.29 0 .577-.071.84-.211l1.388-.738 2.264-1.169 1.357-.008-5.442 5.416c-.001.001-.001.001-.002.001L.857 23.548c-.316.315-.49.732-.49 1.178s.174.863.49 1.179c.325.323.752.485 1.179.485s.854-.162 1.18-.485l1.314-1.309 1.741-1.3.901.897-1.762 1.754c0 .001-.001.001-.002.001l-1.339 1.333c-.316.315-.49.732-.49 1.178s.174.863.49 1.179c.325.323.753.485 1.18.485s.855-.162 1.18-.485l3.482-3.467c.001-.001.001-.001.001-.002l1.01-1-.004-.004c.006-.006.015-.009.022-.015l5.166-5.659 3.471.494c.025.004.05.005.075.005.065 0 .127-.015.187-.038.018-.006.033-.015.05-.023.019-.01.039-.015.058-.027l3.214-2.133c.012-.008.018-.021.029-.029.013-.01.029-.014.041-.026l1.272-1.191c.662-.62.753-1.635.212-2.362zM2.131 17.771a.714.714 0 0 1-.558.052.7167.7167 0 0 1-.427-.358.7138.7138 0 0 1 .214-.902l1.314-.632.449 1.313-.992.528zm3.497-1.828-1.548.8-.256-.747-.183-.537 2.027-1.001-.04 1.484zm15.1-6.62c0 .918-.219 1.785-.599 2.56l-4.182-1.899c-.044-.573-.341-1.075-.788-1.388l1.464-4.861c2.378.756 4.105 2.975 4.105 5.588zm-11.789 0c0-3.235 2.644-5.867 5.895-5.867.253 0 .5.021.745.052l-1.432 4.754c-.019-.001-.037-.006-.057-.006-1.033 0-1.873.837-1.873 1.867s.84 1.867 1.873 1.867c.694 0 1.294-.383 1.618-.945l3.863 1.755c-1.075 1.446-2.795 2.39-4.737 2.39-3.25 0-5.895-2.632-5.895-5.867zm5.956.8c0 .441-.362.8-.806.8s-.806-.359-.806-.8c0-.441.362-.8.806-.8s.806.359.806.8zM2.465 25.148c-.236.234-.619.234-.854.001-.114-.114-.176-.263-.176-.423s.062-.309.176-.421l.962-.959.851.848-.959.955zm3.214 3.733c-.236.234-.619.235-.855.001-.114-.114-.176-.263-.176-.423s.062-.309.176-.421l.963-.959.852.848-.96.955zm3.482-3.469c-.001 0-.001 0-.002.001l-1.765 1.76-.852-.848 1.763-1.756c.001-.001.001-.001.002-.001.04-.04.065-.088.09-.135.007-.014.02-.026.026-.04.017-.041.019-.085.026-.129.003-.025.014-.047.014-.073 0-.036-.013-.07-.02-.106-.006-.032-.006-.065-.019-.095-.02-.05-.055-.094-.091-.138-.01-.012-.014-.027-.025-.038h-.001c-.001 0-.001-.002-.001-.002l-1.607-1.6c-.017-.017-.039-.024-.058-.038a.5067.5067 0 0 0-.087-.058c-.03-.015-.061-.024-.093-.033a.5073.5073 0 0 0-.103-.02.5002.5002 0 0 0-.095.005.5307.5307 0 0 0-.104.02c-.034.011-.063.027-.094.045-.02.011-.042.015-.061.029l-1.773 1.324-.901-.897 2.399-2.386 4.361 4.289-.928.919zm6.819-7.017c-.015-.002-.03.004-.045.003-.008 0-.017-.001-.026-.001-.031 0-.062.003-.092.008h.003a.5364.5364 0 0 0-.088.021c-.034.012-.065.028-.097.047s-.059.039-.084.062c-.013.011-.028.017-.04.029l-4.699 5.146-4.328-4.257 2.833-2.818c.209-.208.21-.546.002-.755a.5314.5314 0 0 0-.381-.156v-.001l-2.219.013.028-1.608 3.104.027c1.265 1.294 3.03 2.101 4.982 2.101.437 0 .864-.045 1.28-.123.04.032.079.065.13.085l2.41.96.152.758.178.885-3.003-.427zm4.041.178-.313-1.558 1.446-1.08.947 1.257-2.08 1.381zm3.754-2.831-.838.785-.931-1.236.831-.637c.155-.119.351-.168.543-.143.193.027.364.128.48.284.088.117.141.265.141.426 0 .206-.087.391-.226.521z" style="fill:var(--color1, #2e2f42)"/><path fill="#2e2f42" d="m13.603 18.545-2.143-2.133c-.207-.207-.545-.207-.753 0l-2.143 2.133a.532.532 0 0 0-.157.378c0 .142.056.278.157.378l2.143 2.133c.104.103.241.155.377.155s.273-.052.376-.155l2.143-2.133a.532.532 0 0 0 .157-.378c0-.142-.057-.278-.157-.378zm-2.519 1.759-1.387-1.381 1.387-1.381 1.387 1.381-1.387 1.381zm6.081-15.233-.258 1.036c.071.018 1.738.452 1.738 2.149h1.067c0-2.017-1.666-2.966-2.547-3.185zm2.547 4.252h-1.067v1.067h1.067V9.323z" style="fill:var(--color1, #2e2f42)"/></symbol><symbol id="icon-clock" viewBox="0 0 32 32"><path fill="#2e2f42" d="M31.298 15.302C31.296 6.849 24.442-.002 15.989 0S.685 6.856.687 15.309c.001 6.658 4.307 12.552 10.65 14.577.055.018.119.029.185.029h.002c.126 0 .245-.035.346-.095l-.003.002c.135-.08.236-.207.283-.356l3.865-12.251c1.057-.005 1.909-.866 1.903-1.923s-.866-1.909-1.923-1.903c-.299.001-.581.072-.831.196l.011-.005-5.106-5.107a.6372.6372 0 0 0-.902.016.637.637 0 0 0 0 .886l5.104 5.109c-.392.799-.168 1.764.536 2.309l-3.683 11.674C3.846 25.786.119 17.712 2.8 10.434S13.555-.571 20.833 2.11c7.278 2.681 11.005 10.755 8.324 18.033-1.345 3.581-4.004 6.406-7.375 7.938l-.088.036-.398-1.874a.6373.6373 0 0 0-1.049-.343l.001-.001-3.837 3.426a.6366.6366 0 0 0-.052.9c.076.085.174.149.283.184l4.899 1.564c.335.108.694-.077.802-.412a.6375.6375 0 0 0 .031-.195c0-.047-.005-.092-.015-.136l.001.004-.391-1.839c5.665-2.388 9.343-7.943 9.329-14.09zm-15.305-.638c.352 0 .638.286.638.638s-.286.638-.638.638c-.352 0-.638-.285-.638-.638s.285-.638.638-.638zm2.101 14.865 2.184-1.948.603 2.84-2.787-.892z" style="fill:var(--color1, #2e2f42)"/><path fill="#4d5ae5" d="M15.355 3.185v1.276c0 .352.285.638.638.638s.638-.285.638-.638V3.185c0-.352-.286-.638-.638-.638s-.638.286-.638.638zM3.876 14.664c-.352 0-.638.286-.638.638s.285.638.638.638h1.275c.352 0 .638-.285.638-.638s-.285-.638-.638-.638H3.876zM28.11 15.94c.352 0 .638-.285.638-.638s-.285-.638-.638-.638h-1.275c-.352 0-.638.286-.638.638s.286.638.638.638h1.275z" style="fill:var(--color2, #4d5ae5)"/></symbol><symbol id="icon-diagram" viewBox="0 0 32 32"><path fill="#4d5ae5" d="M14.926 14.965h1.066v4.798h-1.066v-4.798zm4.265 2.133h1.066v2.665h-1.066v-2.665zm-8.529 1.599h1.066v1.066h-1.066v-1.066zm-3.199-.533h1.066v1.599H7.463v-1.599z" style="fill:var(--color2, #4d5ae5)"/><path fill="#2e2f42" d="M1.599 28.293h25.588c.883 0 1.599-.716 1.599-1.599v-2.132c0-.883-.716-1.599-1.599-1.599h-.533V9.669l3.028-2.868c.703.346 1.553.136 2.013-.499s.396-1.508-.152-2.069c-.548-.56-1.42-.644-2.065-.198s-.874 1.292-.542 2.002L26.655 8.2V6.97c0-.883-.716-1.599-1.599-1.599H3.733c-.883 0-1.599.716-1.599 1.599v15.993h-.533c-.883 0-1.599.716-1.599 1.599v2.132c0 .883.716 1.599 1.599 1.599zM30.386 4.837c.294 0 .533.239.533.533s-.239.533-.533.533c-.294 0-.533-.239-.533-.533s.239-.533.533-.533zM3.199 6.969c0-.294.239-.533.533-.533h21.323c.294 0 .533.239.533.533v2.239l-1.066 1.013V8.035c0-.294-.239-.533-.533-.533H4.798c-.294 0-.533.239-.533.533v13.327c0 .294.239.533.533.533h19.191c.294 0 .533-.239.533-.533v-9.675l1.066-1.01v12.284H3.198V6.968zm4.797 6.93c-.721-.002-1.355.478-1.546 1.174s.105 1.433.725 1.801c.62.368 1.41.276 1.928-.226l1.853.93a.5341.5341 0 0 0 .636-.122v-.001l3.939-4.432 3.872 2.902a.533.533 0 0 0 .686-.039l3.365-3.188v8.132H5.329V8.569h18.125v2.66l-3.772 3.572-3.905-2.927a.5329.5329 0 0 0-.718.071v.001l-3.993 4.493-1.493-.747c.01-.056.017-.123.02-.19v-.003c0-.883-.716-1.599-1.599-1.599zm.533 1.6c0 .294-.239.533-.533.533s-.533-.239-.533-.533c0-.294.239-.533.533-.533s.533.239.533.533zm3.199 8.529h5.331v.533c0 .294-.239.533-.533.533h-4.265a.5335.5335 0 0 1-.533-.533v-.533zm-10.662.533c0-.294.239-.533.533-.533h9.062v.533c0 .883.716 1.599 1.599 1.599h4.265c.883 0 1.599-.716 1.599-1.599v-.533h9.062c.294 0 .533.239.533.533v2.132c0 .294-.239.533-.533.533H1.598a.5335.5335 0 0 1-.533-.533v-2.132z" style="fill:var(--color1, #2e2f42)"/></symbol><symbol id="icon-Logo-1" viewBox="0 0 59 32"><path d="m21.716 4.001 4.005 3.815-7.434-.004v18.511h19.43v-7.078l4 3.811V4H21.716zm15.825 14.797L26.186 7.98h11.355v10.818zm-3.525 4.818H21.362v-12.45h.894v11.607h11.76v.843zm-10.131 6.136-.472-.97h-.389l.684 1.284v.748h.353v-.748l.684-1.284h-.388l-.472.97zm1.738-.969h.084l.767 2.031h-.368l-.164-.476h-.786l-.164.476h-.367l.765-2.031h.234zm-.372 1.278h.595l-.298-.862-.297.862zm2.455-.337c-.006-.007-.02-.026-.035-.044l-.009-.013c-.052-.069-.093-.135-.121-.2a.4852.4852 0 0 1-.043-.201c0-.106.022-.197.066-.273s.106-.135.186-.176c.08-.042.173-.063.28-.063.103 0 .192.021.266.063.075.041.133.095.173.163.039.063.061.139.061.22v.004c0 .064-.012.123-.035.176a.4913.4913 0 0 1-.097.145c-.043.045-.089.086-.139.122l-.003.002-.141.103.402.475a.7066.7066 0 0 0 .034-.077l.002-.006c.034-.089.052-.188.052-.297h.29c0 .099-.01.192-.029.28a.8568.8568 0 0 1-.093.25l.002-.004a.7149.7149 0 0 1-.059.091l.001-.002.298.351h-.389l-.118-.139a.7996.7996 0 0 1-.203.112l-.005.002a.9383.9383 0 0 1-.315.053c-.135 0-.252-.025-.35-.074s-.175-.117-.229-.204c-.053-.087-.08-.186-.08-.297 0-.083.017-.155.052-.218s.081-.122.141-.176c.056-.051.118-.1.182-.145l.006-.004zm.167.204-.042.031c-.049.04-.086.079-.11.116s-.039.07-.046.1a.2938.2938 0 0 0-.011.081c0 .059.013.113.038.162a.295.295 0 0 0 .112.115l.001.001c.05.028.111.042.183.042.082 0 .159-.019.228-.053l-.003.001a.6099.6099 0 0 0 .103-.064l-.452-.532zm.08-.371.125-.084c.059-.039.1-.077.126-.114s.038-.086.038-.142c0-.048-.019-.093-.056-.134s-.09-.061-.158-.061c-.047 0-.087.011-.12.034a.1998.1998 0 0 0-.073.085l-.001.001a.2842.2842 0 0 0-.024.119c0 .042.011.085.032.13s.051.09.088.138c.008.01.015.02.023.029zm3.554.596h-.349c-.01.088-.032.163-.064.225-.032.06-.079.106-.141.138s-.142.047-.241.047c-.082 0-.152-.016-.211-.049s-.107-.079-.145-.138c-.037-.059-.065-.131-.084-.213s-.027-.177-.027-.279v-.172c0-.108.01-.204.029-.287s.051-.156.091-.213c.04-.058.09-.101.149-.131s.129-.045.209-.045c.098 0 .177.017.237.05.06.032.107.081.136.14l.001.002c.032.062.052.137.061.225h.349c-.014-.136-.052-.256-.114-.361s-.148-.187-.259-.247c-.112-.06-.248-.089-.41-.089-.127 0-.242.022-.345.067a.7315.7315 0 0 0-.26.193l-.001.001c-.073.084-.128.185-.167.303s-.057.25-.057.396v.169c0 .146.019.278.056.396s.093.219.165.303c.072.083.158.147.258.193s.213.067.339.067c.164 0 .303-.03.417-.089s.203-.141.266-.244c.063-.104.1-.223.112-.356zm1.938-.299v-.112c0-.153-.02-.291-.061-.412s-.097-.226-.172-.311a.7407.7407 0 0 0-.262-.195l-.005-.002c-.103-.046-.218-.068-.343-.068s-.239.023-.342.068a.7584.7584 0 0 0-.266.196l-.001.001c-.074.086-.132.189-.173.311s-.061.258-.061.412v.112c0 .154.02.291.061.413s.1.226.176.311c.075.086.164.151.266.197s.217.067.342.067c.126 0 .24-.022.343-.067a.7333.7333 0 0 0 .264-.196l.001-.001c.074-.086.132-.189.172-.311s.06-.259.06-.413zm-.35-.114v.114c0 .113-.011.214-.033.301s-.053.161-.095.222c-.042.059-.093.105-.153.135s-.13.045-.208.045c-.077 0-.146-.015-.206-.045s-.113-.076-.156-.135c-.043-.06-.075-.134-.098-.222s-.033-.188-.033-.301v-.114c0-.113.011-.213.033-.3s.054-.16.096-.219c.043-.059.094-.104.155-.134s.129-.046.206-.046.147.015.208.046c.061.03.113.074.155.134s.075.132.096.219c.022.087.033.187.033.3z"/></symbol><symbol id="icon-Logo-2" viewBox="0 0 59 32"><path d="M28.638 3.392h-.078c-.12-.007-.24-.01-.36-.013h-.26c-.227 0-.458.006-.688.017-.008-.001-.017-.001-.026-.001s-.018 0-.027.001h.001c-2.206.129-4.255.68-6.106 1.575l.096-.042-.247.119v12.653l.578-.196c.507-.174 1.048-.331 1.608-.477 1.382-.37 2.973-.593 4.613-.615h.013v1.662c-.219.002-.432.008-.643.019l.034-.001h-.048c-1.299.073-2.516.268-3.688.575l.129-.029c-1.61.409-3.022.975-4.333 1.699l.093-.047V4.063c1.281-.761 2.762-1.382 4.331-1.784l.118-.026c1.257-.338 2.7-.535 4.189-.541h.248c.292.007.577.02.844.041.77.055 1.483.173 2.173.351l-.084-.018v1.636c-.583-.143-1.275-.251-1.982-.303l-.042-.002-.041-.003c-.141-.012-.282-.024-.414-.024zm2.88 1.673c.363.028.739.041 1.119.041 1.569-.006 3.087-.212 4.533-.593l-.125.028c1.61-.411 3.021-.977 4.332-1.701l-.094.047v15.939c-1.281.761-2.763 1.381-4.332 1.784l-.118.026c-1.256.337-2.7.533-4.189.539h-.107c-1.093 0-2.154-.137-3.166-.394l.089.019V4.758c.246.057.499.109.756.153.422.071.867.123 1.301.155zm8.112.124-.578.195c-.349.128-.886.293-1.429.44l-.178.041c-1.44.385-3.094.61-4.8.616h-.004c-.377 0-.724-.01-1.06-.032l-.461-.031v13.016l.396.035c.367.032.746.048 1.128.048 1.347-.006 2.65-.184 3.891-.514l-.107.024c1.134-.288 2.118-.651 3.051-1.104l-.094.041.247-.119V5.188zM20.423 25.838a.8692.8692 0 0 0-.288-.197l-.006-.002a.8382.8382 0 0 0-.318-.062c-.011 0-.022 0-.032.001h.002-.013c-.129 0-.253.026-.365.072l.006-.002a.8652.8652 0 0 0-.289.19.85.85 0 0 0-.185.285l-.002.006a.9298.9298 0 0 0-.067.348v.011-.001 2.168c-.005.153.024.305.085.445.053.114.127.211.216.29l.001.001c.087.073.188.126.298.154.097.028.208.045.324.045h.008a.806.806 0 0 0 .347-.078l-.005.002c.113-.05.209-.118.289-.2a.9532.9532 0 0 0 .187-.284l.002-.006a.8592.8592 0 0 0 .069-.342v-.247h-.567V28.641c0 .065-.012.127-.035.184l.001-.003a.3454.3454 0 0 1-.082.122.3412.3412 0 0 1-.116.062l-.002.001a.3693.3693 0 0 1-.118.02.2854.2854 0 0 1-.15-.023l.002.001a.2904.2904 0 0 1-.117-.093l-.001-.001a.5117.5117 0 0 1-.076-.268c0-.008 0-.016.001-.024v.001V26.577c0-.11.026-.214.072-.306l-.002.004c.03-.046.07-.082.118-.105l.002-.001a.2884.2884 0 0 1 .123-.027c.012 0 .024.001.036.002h-.001.011c.099 0 .187.048.242.121l.001.001c.059.076.094.174.094.279v.012-.001.187h.561v-.23c0-.133-.026-.261-.072-.377l.002.007a.8943.8943 0 0 0-.19-.306zm3.367-.024a.9985.9985 0 0 0-.644-.238 1.006 1.006 0 0 0-.345.063l.007-.002a.9083.9083 0 0 0-.3.178l.001-.001a.9078.9078 0 0 0-.218.298l-.002.006a1.001 1.001 0 0 0-.083.401v.02-.001 2.08c-.004.146.024.292.082.426.051.112.126.211.22.291.087.08.188.143.299.183.108.04.223.061.338.061.122 0 .238-.023.345-.063l-.007.002a.955.955 0 0 0 .307-.184l-.001.001c.089-.08.161-.177.212-.285l.002-.005a.9948.9948 0 0 0 .083-.399v-.028.001-2.1c0-.145-.03-.282-.085-.407l.003.006a.9233.9233 0 0 0-.214-.303zm-.265 2.803c.001.01.001.021.001.032 0 .105-.044.201-.114.269a.416.416 0 0 1-.267.097.4114.4114 0 0 1-.267-.098h.001a.3736.3736 0 0 1-.114-.269c0-.011 0-.023.002-.034v.001-2.08c-.001-.01-.001-.021-.001-.032 0-.105.044-.201.114-.268a.416.416 0 0 1 .267-.097c.102 0 .195.037.267.098h-.001c.07.068.114.163.114.268 0 .011 0 .023-.002.034v-.001 2.08zm4.687.929v-3.937h-.545l-.716 2.084h-.01l-.721-2.084h-.539v3.937h.562v-2.395h.01l.551 1.693h.28l.555-1.693h.01v2.395h.562zm3.195-3.661a.7772.7772 0 0 0-.313-.213l-.005-.002c-.115-.039-.248-.061-.386-.061h-.023.001-.836v3.937h.561v-1.537h.289c.175.008.349-.029.506-.108a.816.816 0 0 0 .306-.297l.002-.004a.9262.9262 0 0 0 .128-.337l.001-.006c.019-.124.031-.267.031-.413v-.037.002c.001-.019.001-.042.001-.065 0-.176-.02-.348-.059-.512l.003.015c-.04-.142-.111-.264-.207-.362zm-.289 1.2a.5158.5158 0 0 1-.053.208l.001-.003a.311.311 0 0 1-.143.137l-.002.001c-.069.032-.15.05-.235.05-.01 0-.021 0-.031-.001h.001-.256v-1.338h.289c.008 0 .017-.001.026-.001.082 0 .16.018.23.051l-.003-.001c.058.034.103.084.131.143l.001.002c.031.069.047.144.049.219v.262c0 .092.006.186 0 .27h-.006zm2.946-1.476h-.46l-.867 3.937h.561l.165-.846h.765l.165.846h.561l-.889-3.937zm-.518 2.555.276-1.427h.01l.275 1.427h-.561zm4.142-.183h-.01l-.847-2.372h-.539v3.937h.561v-2.367h.012l.857 2.367h.528v-3.937h-.561v2.372zm3.428-2.372-.451 1.565h-.012l-.451-1.565h-.594l.77 2.273v1.664h.561v-1.664l.77-2.273h-.594zm-22.258 5.048h.27v.759h.184v-.759h.269v-.155h-.723v.155zm2.273-.155-.354.914h.195l.075-.208h.364l.078.208h.2l-.363-.914h-.195zm-.029.552.124-.339.124.339h-.249zm2.276.025h.211v.118a.3474.3474 0 0 1-.217.077h-.013a.2326.2326 0 0 1-.181-.087.3785.3785 0 0 1-.068-.218c0-.007 0-.014.001-.021v.001c0-.203.088-.305.263-.305.006-.001.012-.001.019-.001.042 0 .08.013.112.036h-.001c.037.026.065.065.076.11v.001l.181-.035c-.039-.179-.168-.269-.387-.269h-.012c-.118 0-.226.045-.308.118a.4465.4465 0 0 0-.133.318c0 .012 0 .023.001.035v-.002.022c0 .123.044.235.118.322l-.001-.001c.08.083.193.135.318.135.01 0 .021 0 .031-.001h-.001.015c.144 0 .275-.055.373-.146v-.36h-.396v.154zm2.294-.577h-.185v.914h.64v-.155h-.455v-.759zm1.94 0h-.185v.914h.185v-.914zm1.897.61-.374-.61h-.179v.914h.172v-.597l.367.597h.184v-.914h-.169v.61zm1.714-.099h.455v-.155h-.455v-.201h.49v-.155h-.675v.914h.694v-.155h-.509v-.247zm4.158-.151h-.36v-.36h-.184v.914h.184v-.4h.36v.4h.184v-.914h-.184v.36zm1.725.151h.457v-.155h-.457v-.201h.492v-.155h-.675v.914h.692v-.155h-.509v-.247zm2.339 0c.159-.025.24-.109.24-.254a.2112.2112 0 0 0 .002-.026c0-.073-.036-.138-.091-.177h-.001a.5057.5057 0 0 0-.232-.055c-.013 0-.025 0-.037.001h.002-.387v.914h.184v-.382h.051c.036 0 .07.008.101.021l-.002-.001c.027.017.049.039.065.066l.001.001.2.291h.22l-.111-.179a.6352.6352 0 0 0-.2-.218l-.002-.001zm-.185-.126h-.136v-.23h.145a.4612.4612 0 0 1 .039-.002c.053 0 .104.009.151.024l-.003-.001c.025.022.04.054.04.09 0 .039-.019.075-.049.096a.496.496 0 0 1-.153.023c-.012 0-.024 0-.035-.001h.002zm1.948.126h.455v-.155h-.455v-.201h.492v-.155h-.677v.914h.694v-.155h-.509v-.247z"/></symbol><symbol id="icon-Logo-3" viewBox="0 0 59 32"><path d="M21.036 28.131c.01 0 .019.002.027.005h-.001c.009.003.016.008.022.014l.126.119c-.098.096-.219.173-.355.225-.14.051-.302.081-.471.081h-.034.002-.026c-.16 0-.314-.028-.457-.079l.009.003a1.0441 1.0441 0 0 1-.357-.213c-.102-.095-.18-.207-.23-.329s-.08-.262-.08-.409v-.014.001-.014c0-.148.032-.289.089-.416l-.003.006a.9908.9908 0 0 1 .244-.329c.108-.093.237-.166.379-.214.155-.051.321-.077.487-.076h.029c.152 0 .297.025.433.072l-.009-.003c.125.046.24.111.339.19l-.106.127a.1131.1131 0 0 1-.026.023c-.01.006-.023.01-.036.01h-.006a.0994.0994 0 0 1-.046-.014l-.057-.034-.079-.043a.7826.7826 0 0 0-.099-.04l-.006-.002a1.0224 1.0224 0 0 0-.137-.033l-.007-.001a1.0484 1.0484 0 0 0-.174-.014h-.014.001-.012c-.121 0-.237.021-.345.059l.007-.002a.8024.8024 0 0 0-.274.159.7294.7294 0 0 0-.178.253.8275.8275 0 0 0-.065.323v.012-.001c-.002.116.02.231.065.34.038.093.098.179.175.252.072.068.162.122.262.156.103.036.213.055.325.054h.018c.062 0 .122-.004.182-.012l-.007.001a.784.784 0 0 0 .292-.09c.047-.027.088-.055.127-.085l-.002.002a.102.102 0 0 1 .06-.022zm3.644-.596v.012c0 .147-.031.287-.088.413l.003-.006c-.051.122-.132.233-.238.326s-.232.166-.373.214c-.143.048-.308.075-.48.075s-.336-.028-.491-.079l.011.003c-.14-.049-.266-.122-.371-.214-.105-.095-.187-.206-.24-.329a1.0743 1.0743 0 0 1 0-.84.982.982 0 0 1 .24-.33c.106-.09.232-.16.371-.206.143-.049.308-.077.48-.077s.336.028.49.08l-.011-.003c.14.049.267.122.372.214.104.094.185.204.238.325.058.135.087.278.085.422zm-.332 0v-.018c0-.115-.022-.225-.062-.325l.002.006a.6874.6874 0 0 0-.169-.252.7473.7473 0 0 0-.267-.159c-.104-.035-.224-.055-.349-.055s-.244.02-.357.058l.008-.002a.7473.7473 0 0 0-.267.159.678.678 0 0 0-.17.252c-.038.1-.06.216-.06.337s.022.237.062.344l-.002-.007c.036.093.094.179.17.252.074.069.165.123.267.158.104.034.224.054.349.054s.244-.02.357-.056l-.008.002a.7452.7452 0 0 0 .267-.158.7.7 0 0 0 .169-.252.8729.8729 0 0 0 .06-.337zm2.818.353.033.076c.013-.027.024-.051.036-.076a.6822.6822 0 0 1 .043-.077l-.002.003.806-1.252c.016-.022.03-.035.046-.039s.036-.007.055-.007h.011-.001.238v2.036h-.282v-1.561c-.001-.01-.001-.023-.001-.035s0-.025.001-.037v.002l-.811 1.27a.1098.1098 0 0 1-.047.046h-.001a.14.14 0 0 1-.068.017h-.049a.14.14 0 0 1-.068-.017h.001a.1223.1223 0 0 1-.047-.046v-.001l-.834-1.278v1.635h-.273v-2.032h.249c.02 0 .039.003.057.007h-.002c.019.008.034.021.044.039l.823 1.253a.398.398 0 0 1 .04.07l.001.003zm3.033-.101v.763h-.316v-2.034h.73c.13 0 .257.016.377.047l-.011-.002c.102.025.197.068.278.127.07.055.124.123.158.199.037.083.055.171.054.26v.008c0 .092-.022.179-.06.256l.002-.003a.5594.5594 0 0 1-.17.203.8223.8223 0 0 1-.279.135c-.107.03-.229.047-.355.047h-.026l-.38-.005zm0-.219h.392c.083 0 .164-.011.24-.033l-.006.002a.5137.5137 0 0 0 .178-.089l-.001.001a.352.352 0 0 0 .106-.133l.001-.002a.3786.3786 0 0 0 .038-.166v-.005c0-.006.001-.014.001-.021 0-.052-.012-.102-.033-.146l.001.002a.3938.3938 0 0 0-.11-.138l-.001-.001c-.121-.08-.272-.119-.424-.109h-.382v.838zm4.24.984h-.254a.1182.1182 0 0 1-.065-.019.139.139 0 0 1-.041-.046v-.001l-.215-.492h-1.077l-.222.492a.116.116 0 0 1-.039.046.1176.1176 0 0 1-.067.02h-.253l.946-2.037h.328l.959 2.037zm-1.561-.756h.89l-.375-.829a1.3598 1.3598 0 0 1-.069-.182l-.002-.009-.036.106a.836.836 0 0 1-.037.092l.002-.006-.372.828zm2.924-1.271c.019.009.035.021.047.036l1.38 1.535v-1.581h.282v2.037h-.162a.1363.1363 0 0 1-.061-.013h.001a.158.158 0 0 1-.05-.038l-1.379-1.534c.001.01.001.023.001.035s0 .025-.001.037v-.002 1.514h-.282v-2.037h.171a.14.14 0 0 1 .054.01h-.001zm4.035 1.217v.809h-.316v-.809l-.872-1.227h.288c.023 0 .044.007.062.018.017.013.031.028.042.045v.001l.546.791c.017.026.036.056.054.088l.003.006c.016.03.028.058.039.086l.041-.088a.6586.6586 0 0 1 .055-.095l-.002.002.538-.797a.2091.2091 0 0 1 .041-.043.103.103 0 0 1 .063-.02h.29l-.874 1.232zm-12.828-4.644c.137.015.276.027.416.038 2.128-.814 3.929-2.145 5.177-3.828s1.887-3.643 1.838-5.635l-2.346-2.004c.477 2.121.254 4.313-.644 6.331s-2.436 3.784-4.441 5.098z"/><path d="m26.172 23.005.063.011c2.143-1.31 3.777-3.138 4.69-5.25s1.064-4.409.433-6.594l-3.341-2.855c1.351 2.346 1.895 4.972 1.569 7.572s-1.511 5.068-3.414 7.115zm11.331-6.979c-.568 2.189-1.946 4.162-3.931 5.628-.58.43-1.205.814-1.868 1.146 1.616-.406 3.102-1.123 4.342-2.097s2.202-2.178 2.812-3.52l-1.355-1.156z"/><path d="m36.971 15.704-1.929-1.648c-.037 1.879-.662 3.716-1.811 5.319s-2.779 2.914-4.721 3.796h.009c.456 0 .907-.024 1.351-.071l-.056.005c1.815-.633 3.419-1.64 4.668-2.931s2.104-2.827 2.489-4.469zm-10.52-8.591-2.302-1.969c-2.057.679-3.827 1.873-5.077 3.426s-1.922 3.392-1.929 5.276c.008 2.082.828 4.103 2.331 5.742s3.603 2.803 5.968 3.308c2.111-2.197 3.347-4.913 3.528-7.751s-.701-5.652-2.52-8.033zm15.838 8.288c-.008-2.471-1.161-4.838-3.206-6.585s-4.816-2.732-7.707-2.739c-1.336-.001-2.661.21-3.907.621l14.091 12.04c.483-1.064.73-2.196.729-3.337z"/></symbol><symbol id="icon-Logo-4" viewBox="0 0 59 32"><path d="M13.76 12.298h-.002c-1.363 0-2.469.996-2.469 2.226v.002c0 1.229 1.105 2.226 2.469 2.226h.002c1.363 0 2.469-.996 2.469-2.226v-.002c0-1.229-1.105-2.226-2.469-2.226zm18.22-.712c-.004-1.707-.758-3.344-2.096-4.551s-3.154-1.887-5.047-1.891c-1.894.003-3.71.683-5.049 1.89s-2.094 2.844-2.098 4.552v9.415s14.289-1.435 14.29-9.413v-.001zM6.286 24.091c.003 1.188.528 2.326 1.46 3.166s2.194 1.314 3.511 1.317c1.317-.003 2.579-.477 3.511-1.317s1.456-1.978 1.46-3.165v-6.551s-9.942.999-9.942 6.549zm4.971 1.174c-.258 0-.509-.069-.723-.198s-.381-.312-.479-.527-.124-.451-.074-.678c.05-.228.174-.437.356-.601s.414-.276.667-.321a1.4268 1.4268 0 0 1 .762.07l-.01-.003c.238.089.441.239.584.432s.219.42.219.652v.003c0 .162-.036.316-.1.454l.003-.007c-.065.143-.161.273-.282.382s-.265.196-.423.256c-.148.057-.319.09-.498.09h-.001v-.004zm9.092-2.111v2.438h-.502v-2.438h.502zm.971 1.041v.392h-1.108v-.392h1.108zm.118-1.041v.393h-1.226v-.393h1.226zm2.293 1.162v.116c0 .185-.025.352-.075.499s-.121.273-.213.377a.934.934 0 0 1-.322.234l-.006.002c-.126.055-.266.082-.42.082-.153 0-.293-.027-.42-.082-.129-.057-.239-.136-.327-.235l-.001-.001c-.093-.104-.165-.229-.216-.377-.05-.147-.075-.314-.075-.499v-.116c0-.186.025-.353.075-.499.05-.147.121-.273.213-.377.089-.1.199-.181.322-.235l.006-.002c.127-.055.267-.082.42-.082.154 0 .294.027.42.082.127.055.237.134.328.238.093.104.164.229.214.377.051.146.077.312.077.499zm-.507.116v-.119c0-.13-.012-.243-.035-.342s-.058-.181-.104-.248-.102-.117-.167-.151c-.066-.035-.141-.052-.226-.052s-.16.017-.226.052c-.065.034-.12.084-.166.151-.045.067-.079.15-.102.248s-.035.212-.035.342v.119c0 .128.012.242.035.341.023.098.058.181.104.249.046.067.102.118.167.152s.141.052.226.052c.085 0 .16-.017.226-.052s.121-.085.166-.152c.045-.068.079-.151.102-.249.023-.099.035-.213.035-.341zm2.138.522c0-.044-.007-.083-.02-.117-.012-.036-.036-.068-.07-.097-.035-.03-.083-.06-.146-.089s-.143-.059-.243-.09a2.9714 2.9714 0 0 1-.334-.128l.019.008a1.3257 1.3257 0 0 1-.261-.156.688.688 0 0 1-.177-.209c-.042-.079-.064-.171-.064-.276 0-.102.022-.194.067-.276a.6292.6292 0 0 1 .188-.214c.08-.06.175-.107.285-.139.11-.032.232-.049.363-.049.18 0 .337.032.47.097s.238.154.311.266c.075.113.112.242.112.387h-.499c0-.071-.015-.134-.045-.188-.029-.055-.074-.098-.134-.129-.059-.031-.134-.047-.224-.047-.087 0-.16.013-.218.04-.058.026-.102.061-.131.105a.2618.2618 0 0 0-.044.147c0 .041.01.079.03.112.021.034.052.065.094.094s.092.056.152.082c.06.026.13.051.209.075.133.04.249.085.35.136.102.05.186.107.254.169s.119.133.154.213c.035.079.052.169.052.27 0 .106-.021.201-.062.285s-.101.155-.179.213c-.078.058-.171.102-.28.132s-.229.045-.363.045c-.127 0-.249-.017-.366-.049l.01.002a1.0716 1.0716 0 0 1-.32-.146.732.732 0 0 1-.226-.244l-.002-.004c-.057-.1-.085-.219-.085-.357h.504c0 .076.012.14.035.193s.056.095.099.127c.044.032.095.056.154.07.06.015.126.022.198.022.087 0 .158-.012.214-.037.057-.025.099-.059.126-.102a.2681.2681 0 0 0 .042-.147zm1.934-1.8v2.438h-.501v-2.438h.501zm.75 0v.393h-1.989v-.393h1.989zm1.922 2.046v.392H28.67V25.2h1.298zm-1.134-2.046v2.438h-.502v-2.438h.502zm.965.993v.382h-1.128v-.382h1.128zm.167-.993v.393H28.67v-.393h1.296zm.295 0h.909c.186 0 .347.028.48.084.135.056.239.138.311.248s.109.244.109.403c0 .131-.022.243-.067.337s-.107.171-.184.232l-.001.001a.9417.9417 0 0 1-.28.147l-.159.084h-.79l-.003-.392h.588c.088 0 .161-.016.219-.047s.102-.075.131-.131c.03-.056.045-.121.045-.194 0-.078-.015-.146-.044-.203s-.073-.1-.132-.131-.133-.045-.223-.045h-.407v2.044h-.502v-2.438zm1.363 2.438-.556-1.087.531-.003.563 1.066v.023h-.537zm2.637-.869h-.621v-.392h.621c.096 0 .174-.016.234-.047.06-.032.104-.077.132-.134s.042-.121.042-.193c0-.073-.014-.14-.042-.203s-.072-.113-.132-.151-.138-.057-.234-.057h-.447v2.044h-.502v-2.438h.949c.191 0 .354.035.491.104.137.068.242.162.315.283s.109.258.109.413c0 .157-.036.294-.109.409s-.177.204-.315.266c-.136.062-.3.094-.491.094zm2.896.477v.392h-1.298V25.2h1.298zm-1.134-2.046v2.438h-.502v-2.438h.502zm.965.993v.382H35.86v-.382h1.128zm.167-.993v.393h-1.296v-.393h1.296zm1.418 0v2.438h-.501v-2.438h.501zm.75 0v.393h-1.989v-.393h1.989zm1.922 2.046v.392h-1.298V25.2h1.298zm-1.133-2.046v2.438h-.502v-2.438h.502zm.964.993v.382h-1.128v-.382h1.128zm.168-.993v.393h-1.296v-.393h1.296zm.294 0h.909c.186 0 .347.028.481.084.135.056.239.138.311.248s.109.244.109.403c0 .131-.022.243-.067.337s-.107.171-.184.232l-.001.001a.9417.9417 0 0 1-.28.147l-.159.084h-.79l-.003-.392h.588c.088 0 .161-.016.219-.047s.102-.075.131-.131c.03-.056.045-.121.045-.194 0-.078-.014-.146-.044-.203s-.073-.1-.132-.131c-.059-.03-.133-.045-.223-.045h-.407v2.044h-.502v-2.438zm1.363 2.438-.556-1.087.531-.003.563 1.066v.023h-.537zm2.103-.638c0-.044-.007-.083-.02-.117-.012-.036-.036-.068-.07-.097-.035-.03-.083-.06-.146-.089s-.143-.059-.243-.09a2.8985 2.8985 0 0 1-.334-.128l.019.008a1.3257 1.3257 0 0 1-.261-.156.706.706 0 0 1-.178-.209c-.042-.079-.064-.171-.064-.276 0-.102.022-.194.067-.276a.6292.6292 0 0 1 .188-.214c.08-.06.175-.107.285-.139.111-.032.232-.049.363-.049.18 0 .337.032.47.097s.238.154.311.266c.075.113.112.242.112.387h-.499c0-.071-.015-.134-.045-.188-.029-.055-.074-.098-.134-.129-.059-.031-.134-.047-.224-.047-.087 0-.16.013-.218.04-.058.026-.102.061-.131.105a.2618.2618 0 0 0-.044.147c0 .041.01.079.03.112.021.034.052.065.094.094s.092.056.152.082c.06.026.13.051.209.075.133.04.249.085.35.136.102.05.186.107.254.169s.119.133.154.213c.035.079.052.169.052.27 0 .106-.021.201-.062.285s-.101.155-.179.213c-.078.058-.171.102-.28.132s-.229.045-.363.045c-.127 0-.249-.017-.366-.049l.01.002a1.0716 1.0716 0 0 1-.32-.146.732.732 0 0 1-.226-.244l-.002-.004c-.057-.1-.085-.219-.085-.357h.504c0 .076.012.14.035.193s.056.095.099.127c.044.032.095.056.154.07.06.015.126.022.198.022.087 0 .158-.012.214-.037.057-.025.099-.059.126-.102a.2681.2681 0 0 0 .042-.147z"/></symbol><symbol id="icon-Logo-5" viewBox="0 0 59 32"><path d="M15.311 25.359c.14.156.215.352.211.553.001.013.001.027.001.042a.794.794 0 0 1-.078.345l.002-.005a.8919.8919 0 0 1-.252.316c-.273.185-.61.276-.951.255h-1.672v-3.504h1.637c.323-.019.644.063.907.233.106.08.189.18.245.294s.08.238.073.361c.01.193-.058.383-.19.536-.127.139-.303.236-.498.274.222.036.422.143.565.3zm-1.961-.529h.7c.159.011.317-.031.445-.116a.4123.4123 0 0 0 .118-.153l.001-.003c.02-.045.032-.098.032-.153 0-.012-.001-.024-.002-.036v.002c.001-.009.001-.019.001-.03 0-.057-.012-.11-.034-.159l.001.003a.443.443 0 0 0-.116-.156l-.001-.001c-.132-.088-.295-.13-.458-.118h-.688v.919zm1.213 1.344a.4365.4365 0 0 0 .128-.158l.001-.003a.3837.3837 0 0 0 .037-.168c0-.01 0-.019-.001-.029v.001c.001-.007.001-.016.001-.025 0-.063-.014-.122-.04-.175l.001.002a.4473.4473 0 0 0-.13-.161l-.001-.001c-.137-.091-.305-.136-.475-.127h-.734v.964h.744c.167.009.333-.034.47-.122zm4.095.691-.911-1.37h-.342v1.37h-.784v-3.504h1.483c.374-.023.744.083 1.033.298.207.19.332.441.353.707s-.066.53-.242.743c-.183.189-.433.315-.707.356l.97 1.4h-.852zm-1.254-1.847h.641c.445 0 .667-.177.667-.531.001-.009.001-.019.001-.029 0-.066-.014-.129-.038-.186l.001.003a.5237.5237 0 0 0-.127-.181c-.141-.105-.322-.156-.504-.142h-.648l.008 1.067zm5.536 1.142h-1.561l-.276.705h-.822l1.434-3.465h.888l1.428 3.465h-.822l-.27-.705zm-.209-.531-.571-1.479-.57 1.479h1.141zm5.57 1.236h-.778l-1.744-2.383v2.383h-.776v-3.504h.776l1.744 2.397v-2.397h.778v3.504zm4.439-.838c-.161.265-.406.48-.704.618-.339.154-.714.23-1.093.221h-1.384v-3.504h1.384c.378-.009.754.065 1.093.216.298.135.543.348.704.611.16.285.243.6.243.919s-.083.634-.243.919zm-.89-.084c.222-.233.344-.53.344-.836s-.122-.603-.344-.836c-.268-.211-.618-.318-.974-.298h-.54v2.268h.54c.355.02.705-.087.974-.298zM23.427 3.868s10.039 3.412 9.826 8.35v8.351s-10.031-3.414-9.822-8.351l-.004-8.35zm18.77 14.745c1.896-1.175 4.089-1.902 6.378-2.116v-2.614c-2.638.915-4.875 2.575-6.378 4.73z"/><path d="M41.058 19.401c1.552-2.813 4.242-4.984 7.517-6.066V5.802s-14.297 4.86-13.995 11.892v11.89s.637-.217 1.639-.625c0-.38 0-.764.046-1.149.296-3.264 2.02-6.289 4.792-8.409z"/><path d="M39.698 23.818c.084-.899.261-1.726.523-2.513l-.023.079c-1.726 1.831-2.772 4.103-2.989 6.497-.021.226-.032.452-.038.685.812-.351 1.757-.789 2.75-1.305-.171-.73-.269-1.568-.269-2.429 0-.357.017-.71.05-1.058l-.003.044zm.568.043c-.028.289-.044.625-.044.964 0 .762.08 1.506.233 2.223l-.012-.07c3.906-2.104 8.295-5.355 8.126-9.284v-.342c-2.791.281-5.402 1.379-7.432 3.126-.475 1.082-.769 2.223-.871 3.383z"/></symbol><symbol id="icon-Logo-6" viewBox="0 0 59 32"><path d="M30.59 15.684c-.254-.338-.375-.737-.346-1.138v-1.65c0-.506.115-.89.344-1.153s.624-.394 1.183-.393c.525 0 .898.112 1.119.336.241.286.358.635.331.987v.388h-.94v-.393c0-.015.001-.034.001-.052 0-.117-.01-.233-.03-.345l.002.012c-.014-.087-.061-.168-.134-.228-.097-.066-.218-.097-.341-.089-.129-.008-.256.025-.358.094-.082.067-.136.156-.156.252-.024.113-.037.242-.037.375v.034-.002 2.003c-.015.193.027.387.121.562.047.06.112.107.188.136.055.022.119.035.186.035.02 0 .04-.001.059-.003h-.002c.12.009.24-.024.333-.091.077-.066.126-.151.14-.243.019-.108.03-.233.03-.36v-.044.002-.406h.94v.371c.026.367-.088.732-.325 1.038-.216.245-.584.368-1.125.368s-.95-.131-1.181-.403zm3.913.017c-.237-.257-.356-.631-.356-1.127v-1.736c0-.49.119-.861.356-1.113s.634-.377 1.191-.376c.553 0 .948.125 1.185.376.237.252.358.623.358 1.113v1.736c0 .49-.121.866-.362 1.125s-.634.388-1.181.388-.951-.131-1.191-.386zm1.629-.417c.085-.161.124-.337.113-.514v-2.126a.9427.9427 0 0 0-.111-.504.4365.4365 0 0 0-.192-.138.5094.5094 0 0 0-.183-.034c-.023 0-.045.001-.067.004h.003a.52.52 0 0 0-.252.031l.004-.001c-.078.03-.145.077-.193.138a.9224.9224 0 0 0-.113.504v2.136c-.012.177.027.353.113.514.055.054.121.097.194.126l.004.001a.641.641 0 0 0 .24.045h.002c.087 0 .169-.017.245-.047l-.005.002c.077-.03.143-.073.198-.127v-.01zm2.235-3.884h1.012l.761 3.203.778-3.203h.985l.099 4.623h-.728l-.078-3.213-.751 3.213h-.584l-.778-3.225-.072 3.225h-.735l.091-4.623zm4.769 0h1.576c.908 0 1.362.438 1.362 1.313 0 .838-.478 1.257-1.434 1.256h-.537v2.055h-.973l.006-4.623zm1.347 1.976c.096.011.194.003.286-.022a.7.7 0 0 0 .25-.125l-.002.001c.112-.156.161-.339.14-.522.001-.015.001-.034.001-.052 0-.131-.017-.258-.05-.378l.002.01a.3314.3314 0 0 0-.072-.127.4047.4047 0 0 0-.121-.092l-.002-.001c-.113-.048-.244-.075-.382-.075-.018 0-.036.001-.054.001h.003-.377v1.382h.377zm2.994-1.976h1.045l1.072 4.623h-.907l-.212-1.066h-.932l-.218 1.066h-.92l1.072-4.623zm.893 3.021-.364-1.941-.364 1.941h.728zm2.09-3.021h.681l1.304 2.637V11.4h.807v4.623h-.648l-1.311-2.753v2.753h-.835l.002-4.623zm4.683 2.86-1.084-2.854h.913l.662 1.833.621-1.833h.893l-1.07 2.854v1.763h-.934V14.26zm-23.05 3.784v.242h-.794v1.879h-.333v-1.879h-.798v-.242h1.924zm2.488 2.121h-.264a.112.112 0 0 1-.065-.021.1172.1172 0 0 1-.043-.048v-.001l-.23-.504h-1.101l-.23.504a.1337.1337 0 0 1-.035.057.1167.1167 0 0 1-.066.02h-.263l.973-2.12h.339l.985 2.112zm-1.611-.787h.918l-.389-.863a1.42 1.42 0 0 1-.069-.189l-.003-.011c-.014.04-.025.079-.037.113l-.035.089-.385.861zm3.288.579c.061.003.122.003.183 0a.99.99 0 0 0 .163-.027l-.008.002c.056-.012.103-.025.149-.041l-.008.003c.043-.015.086-.034.13-.052v-.477h-.393a.069.069 0 0 1-.025-.004h.001a.092.092 0 0 1-.024-.013.0612.0612 0 0 1-.015-.017.0414.0414 0 0 1-.005-.019v-.165h.755v.813a1.526 1.526 0 0 1-.185.097l-.009.004c-.06.026-.132.051-.206.07l-.01.002c-.068.018-.151.034-.235.043l-.008.001c-.084.009-.182.013-.281.013h-.016c-.171 0-.335-.029-.488-.082l.01.003c-.146-.051-.278-.126-.389-.222-.108-.097-.194-.211-.251-.336s-.09-.272-.09-.426v-.014.001-.013c0-.155.032-.303.09-.437l-.003.007c.056-.126.141-.24.251-.336.111-.095.243-.17.389-.22.15-.05.323-.079.502-.079h.021-.001.003c.094 0 .187.007.278.02l-.01-.001c.088.012.166.031.241.056l-.009-.003c.068.022.133.05.195.084.06.033.116.07.169.111l-.093.131a.0953.0953 0 0 1-.031.029.0926.0926 0 0 1-.044.011.139.139 0 0 1-.061-.017h.001c-.039-.019-.07-.035-.101-.053l.006.003a.8288.8288 0 0 0-.124-.055l-.006-.002a1.208 1.208 0 0 0-.171-.046l-.008-.001a1.438 1.438 0 0 0-.235-.018h-.013.001-.012c-.13 0-.255.022-.372.061l.008-.002c-.108.038-.206.095-.286.168a.7341.7341 0 0 0-.181.264c-.041.105-.065.226-.065.353s.024.249.068.36l-.002-.007c.043.1.109.191.195.267.08.073.177.13.284.168.124.037.255.051.385.042zm3.102-.034h1.062v.242h-1.387v-2.12h.333l-.008 1.879zm2.167.242h-.333v-2.12h.333v2.12zm1.237-2.111c.02.01.037.023.051.039l1.422 1.598c-.001-.011-.001-.024-.001-.038s.001-.026.002-.04v.002-1.58h.29v2.129H44.35a.1437.1437 0 0 1-.062-.013h.001a.1896.1896 0 0 1-.052-.04l-1.42-1.597v1.649h-.278v-2.121h.173a.14.14 0 0 1 .054.01zm4.213-.01v.233h-1.179v.7h.955v.225h-.955v.724h1.179v.233h-1.521v-2.115h1.521zM12.112 4.949l14.774 3.62v12.684l-14.774-3.618V4.949zm-.947-1.081v14.383l16.667 4.085V7.955L11.165 3.869z"/><path d="M20.097 29.013 3.428 24.925V10.543l16.669 4.086v14.383zM11.441 4.786 26.022 8.36l-6.201 5.352-14.583-3.576 6.203-5.351zm-.276-.918-7.736 6.675 16.669 4.086 7.734-6.675-16.667-4.086zm9.87 24.336 6.796-5.866-6.796-1.667v7.533z"/></symbol><symbol id="facebook" viewBox="0 0 32 32"><path d="M21.329 5.313h2.921V.225C23.746.156 22.013 0 19.994 0c-4.212 0-7.097 2.649-7.097 7.519V12H8.249v5.688h4.648V32h5.699V17.689h4.46l.708-5.688h-5.169V8.082c.001-1.644.444-2.769 2.735-2.769z"/></symbol><symbol id="instagram" viewBox="0 0 32 32"><path d="M31.969 9.408c-.075-1.7-.35-2.869-.744-3.882-.406-1.075-1.031-2.038-1.851-2.838A7.8895 7.8895 0 0 0 26.596.862l-.054-.018C25.523.45 24.361.175 22.66.1 20.947.019 20.403 0 16.059 0s-4.888.019-6.595.094c-1.7.075-2.869.35-3.882.744-1.075.406-2.038 1.031-2.838 1.85A7.8895 7.8895 0 0 0 .918 5.466L.9 5.52C.506 6.539.231 7.701.156 9.402c-.081 1.713-.1 2.257-.1 6.601s.019 4.888.094 6.595c.075 1.7.35 2.869.744 3.882.427 1.11 1.056 2.057 1.849 2.837l.001.001c.78.792 1.724 1.419 2.778 1.826l.054.018c1.019.394 2.182.669 3.882.744 1.706.075 2.25.094 6.595.094s4.888-.019 6.595-.094c1.7-.075 2.869-.35 3.882-.744 2.157-.85 3.832-2.525 4.663-4.627l.019-.055c.394-1.019.669-2.182.744-3.882.075-1.707.094-2.25.094-6.595s-.006-4.888-.081-6.595zm-2.882 13.065c-.069 1.563-.331 2.407-.55 2.969-.551 1.4-1.639 2.487-3.002 3.026l-.036.013c-.563.219-1.413.481-2.969.55-1.688.075-2.194.094-6.464.094s-4.782-.019-6.464-.094c-1.563-.069-2.407-.331-2.969-.55-.694-.256-1.325-.663-1.838-1.194a4.9972 4.9972 0 0 1-1.183-1.803l-.011-.034c-.219-.563-.481-1.413-.55-2.969-.075-1.688-.094-2.194-.094-6.464s.019-4.782.094-6.464c.069-1.563.331-2.407.55-2.969.256-.694.663-1.325 1.2-1.838a4.9644 4.9644 0 0 1 1.804-1.182l.034-.011c.563-.219 1.413-.481 2.969-.55 1.688-.075 2.194-.094 6.464-.094 4.276 0 4.782.019 6.464.094 1.563.069 2.407.331 2.969.55.694.256 1.325.662 1.838 1.194.531.519.938 1.144 1.194 1.838.219.563.481 1.413.55 2.969.075 1.688.094 2.194.094 6.464s-.019 4.77-.094 6.458z"/><path d="M16.059 7.783c-4.538 0-8.22 3.682-8.22 8.22s3.682 8.22 8.22 8.22c4.539 0 8.22-3.682 8.22-8.22s-3.682-8.22-8.22-8.22zm0 13.552c-2.944 0-5.332-2.388-5.332-5.332s2.388-5.332 5.332-5.332c2.945 0 5.332 2.388 5.332 5.332s-2.388 5.332-5.332 5.332zM26.524 7.458c0 1.06-.859 1.919-1.919 1.919s-1.919-.859-1.919-1.919.859-1.919 1.919-1.919 1.919.859 1.919 1.919z"/></symbol><symbol id="linkedin" viewBox="0 0 32 32"><path d="M31.992 32v-.001H32V20.263c0-5.741-1.236-10.164-7.948-10.164-3.227 0-5.392 1.771-6.276 3.449h-.093v-2.913h-6.364v21.364h6.627V21.42c0-2.785.528-5.479 3.977-5.479 3.399 0 3.449 3.179 3.449 5.657v10.401h6.62zM.528 10.636h6.635V32H.528V10.636zM3.843 0C1.722 0 0 1.721 0 3.843s1.721 3.879 3.843 3.879c2.121 0 3.843-1.757 3.843-3.879C7.685 1.722 5.963 0 3.843 0z"/></symbol><symbol id="twitter" viewBox="0 0 32 32"><path d="M32 6.078c-1.19.522-2.458.868-3.78 1.036 1.36-.812 2.398-2.088 2.886-3.626-1.268.756-2.668 1.29-4.16 1.588C25.742 3.794 24.026 3 22.154 3c-3.632 0-6.556 2.948-6.556 6.562 0 .52.044 1.02.152 1.496-5.454-.266-10.28-2.88-13.522-6.862-.566.982-.898 2.106-.898 3.316 0 2.272 1.17 4.286 2.914 5.452-1.054-.02-2.088-.326-2.964-.808v.072c0 3.188 2.274 5.836 5.256 6.446-.534.146-1.116.216-1.72.216-.42 0-.844-.024-1.242-.112.85 2.598 3.262 4.508 6.13 4.57-2.232 1.746-5.066 2.798-8.134 2.798-.538 0-1.054-.024-1.57-.09C2.906 27.93 6.35 29 10.064 29c12.072 0 18.672-10 18.672-18.668 0-.29-.01-.57-.024-.848C30.014 8.56 31.108 7.406 32 6.078z"/></symbol><symbol id="icon-close" viewBox="0 0 32 32"><path d="M32 3.223 28.777 0 16 12.777 3.223 0 0 3.223 12.777 16 0 28.777 3.223 32 16 19.223 28.777 32 32 28.777 19.223 16 32 3.223z"/></symbol></defs></svg>